<?xml version="1.0" encoding="UTF-8"?>
<svg width="12px" height="12px" viewBox="0 0 12 12" version="1.1" xmlns="http://www.w3.org/2000/svg" xmlns:xlink="http://www.w3.org/1999/xlink">
    <!-- Generator: sketchtool 48.2 (47327) - http://www.bohemiancoding.com/sketch -->
    <title>976F5CE2-2227-4EBA-9B2C-B73DA9B33F04</title>
    <desc>Created with sketchtool.</desc>
    <defs></defs>
    <g id="3_1" stroke="none" stroke-width="1" fill="none" fill-rule="evenodd" transform="translate(-40.000000, -368.000000)">
        <path d="M46,368 C49.3135,368 52,370.6865 52,374 C52,377.3135 49.3135,380 46,380 C42.6865,380 40,377.3135 40,374 C40,370.6865 42.6865,368 46,368 Z M44.0429688,370.273438 L44.0429688,370.878906 C44.0429688,371.868495 44.0052087,372.686846 43.9296875,373.333984 C43.8541663,373.981123 43.6979179,374.549477 43.4609375,375.039062 L42.9765625,375.039062 L42.9765625,377.25 L43.9375,377.25 L43.9375,376 L47.5429688,376 L47.5429688,377.25 L48.5039062,377.25 L48.5039062,375.039062 L48,375.039062 L48,370.273438 L44.0429688,370.273438 Z M45.1445312,371.234375 L46.8476562,371.234375 L46.8476562,375.039062 L44.671875,375.039062 C44.9869807,374.242184 45.1445312,372.973967 45.1445312,371.234375 Z" id="Combined-Shape" fill="#D0021B"></path>
    </g>
</svg>