<svg xmlns="http://www.w3.org/2000/svg" width="91" height="33" viewBox="0 0 91 33">
    <g fill="none" fill-rule="evenodd">
        <path fill="#0AF" d="M26.682 5.042H5.238L6.785.79h21.444l-1.547 4.25zm-.774 2.125H4.463l-1.547 4.25H24.36l1.548-4.25zm-2.318 6.377H2.146l-1.547 4.25h21.444l1.547-4.25z"/>
        <path fill="#0A2896" d="M77.773 28.392h3.84c1.456 0 2.338-.353 2.956-1.147.308-.397.75-1.103.75-2.427s-.442-2.251-1.323-2.913c-.53-.397-1.236-.617-2.427-.617h-3.796v7.104zm-5.073 4.28V7.167h16.59l-1.456 4.28h-10.06v5.649h4.103c3.31 0 5.03.794 6.222 1.809.926.794 2.516 2.559 2.516 6.045 0 3.442-1.633 5.339-3.001 6.31-1.589 1.103-3.266 1.412-6.663 1.412H72.7zm-14.695 0V11.448h-7.37V7.167h20.476l-1.457 4.28h-6.53v21.225h-5.119zM37.575 17.36h2.867c.883 0 1.325 0 1.766-.132 1.192-.353 1.942-1.412 1.942-2.868 0-1.721-.794-2.471-1.942-2.824-.486-.133-.97-.177-1.941-.177h-2.693v6zm.043 4.413v6.707h3.53c1.06 0 2.03-.088 2.736-.75.706-.662 1.016-1.5 1.016-2.603 0-.84-.221-1.633-.663-2.207-.75-.926-1.677-1.147-3.265-1.147h-3.354zm8.164-2.692v.089c.97.353 1.898.97 2.383 1.368 1.5 1.235 2.163 2.868 2.163 4.986 0 3.486-1.855 6-4.899 6.795-.927.265-1.898.353-3.707.353h-9.221V7.167h8.163c1.676 0 2.823.089 3.838.353 2.956.795 4.898 2.824 4.898 6.046 0 1.72-.617 3.177-1.633 4.147a6.18 6.18 0 0 1-1.985 1.368z"/>
    </g>
</svg>
