<?xml version="1.0" encoding="UTF-8"?>
<svg width="12px" height="12px" viewBox="0 0 12 12" version="1.1" xmlns="http://www.w3.org/2000/svg" xmlns:xlink="http://www.w3.org/1999/xlink">
    <!-- Generator: sketchtool 48.2 (47327) - http://www.bohemiancoding.com/sketch -->
    <title>0E063BD3-8A63-4368-AC6A-9A15896DA006</title>
    <desc>Created with sketchtool.</desc>
    <defs></defs>
    <g id="2_2" stroke="none" stroke-width="1" fill="none" fill-rule="evenodd" transform="translate(-40.000000, -450.000000)">
        <path d="M46,450 C49.3135,450 52,452.6865 52,456 C52,459.3135 49.3135,462 46,462 C42.6865,462 40,459.3135 40,456 C40,452.6865 42.6865,450 46,450 Z M47.2460938,456.894531 C47.1497391,457.313804 46.9908865,457.621093 46.7695312,457.816406 C46.548176,458.01172 46.2838557,458.109375 45.9765625,458.109375 C45.5598938,458.109375 45.2213555,457.955731 44.9609375,457.648438 C44.7005195,457.341144 44.5703125,456.825524 44.5703125,456.101562 C44.5703125,455.419267 44.7024726,454.925783 44.9667969,454.621094 C45.2311211,454.316405 45.5755187,454.164062 46,454.164062 C46.3072932,454.164062 46.5683583,454.249999 46.7832031,454.421875 C46.9980479,454.593751 47.1393226,454.828124 47.2070312,455.125 L48.3515625,454.851562 C48.2213535,454.393227 48.026043,454.041668 47.765625,453.796875 C47.3281228,453.38281 46.7591181,453.175781 46.0585938,453.175781 C45.2565064,453.175781 44.6093775,453.43945 44.1171875,453.966797 C43.6249975,454.494143 43.3789062,455.23437 43.3789062,456.1875 C43.3789062,457.088546 43.6236955,457.798826 44.1132812,458.318359 C44.602867,458.837893 45.2278608,459.097656 45.9882812,459.097656 C46.6028677,459.097656 47.110024,458.945965 47.5097656,458.642578 C47.9095072,458.339191 48.1953116,457.875003 48.3671875,457.25 L47.2460938,456.894531 Z" id="Combined-Shape" fill="#4A90E2"></path>
    </g>
</svg>